<svg xmlns="http://www.w3.org/2000/svg" xmlns:svg="http://www.w3.org/2000/svg" id="svg7384" width="16" height="16" version="1.1"><metadata id="metadata90"/><title id="title9167">Gnome Symbolic Icon Theme</title><g style="display:inline" id="layer11" transform="translate(-163.0002,-508.99113)"><path style="color:#000;font-style:normal;font-variant:normal;font-weight:400;font-stretch:normal;font-size:medium;line-height:normal;font-family:Sans;-inkscape-font-specification:Sans;text-indent:0;text-align:start;text-decoration:none;text-decoration-line:none;letter-spacing:normal;word-spacing:normal;text-transform:none;writing-mode:lr-tb;direction:ltr;text-anchor:start;display:inline;overflow:visible;visibility:visible;fill:#bebebe;fill-opacity:1;stroke:none;stroke-width:2;marker:none;enable-background:new" id="rect10788" d="m 167.0002,510 c -1.0907,0 -2,0.9093 -2,2 v 11 c 0,1.0907 0.9093,2 2,2 h 9 c 1.0907,0 2,-0.9093 2,-2 v -11 c 0,-1.0907 -0.9093,-2 -2,-2 0,4.33333 0,8.66667 0,13 h -9 c 0,-4.33333 0,-8.66667 0,-13 z"/><path style="color:#000;font-style:normal;font-variant:normal;font-weight:400;font-stretch:normal;font-size:medium;line-height:normal;font-family:Sans;-inkscape-font-specification:Sans;text-indent:0;text-align:start;text-decoration:none;text-decoration-line:none;letter-spacing:normal;word-spacing:normal;text-transform:none;writing-mode:lr-tb;direction:ltr;baseline-shift:baseline;text-anchor:start;display:inline;overflow:visible;visibility:visible;fill:#bebebe;fill-opacity:1;stroke:none;stroke-width:1;marker:none;enable-background:accumulate" id="path3601-2-3-3-9" d="M 168.40625,509 A 0.50005,0.50005 0 0 0 168,509.5 v 3 a 0.50005,0.50005 0 1 0 1,0 v -3 a 0.50005,0.50005 0 0 0 -0.59375,-0.5 z"/><path style="color:#000;font-style:normal;font-variant:normal;font-weight:400;font-stretch:normal;font-size:medium;line-height:normal;font-family:Sans;-inkscape-font-specification:Sans;text-indent:0;text-align:start;text-decoration:none;text-decoration-line:none;letter-spacing:normal;word-spacing:normal;text-transform:none;writing-mode:lr-tb;direction:ltr;baseline-shift:baseline;text-anchor:start;display:inline;overflow:visible;visibility:visible;fill:#bebebe;fill-opacity:1;stroke:none;stroke-width:1;marker:none;enable-background:accumulate" id="path3601-2-3-3-9-3" d="M 170.40625,509 A 0.50005,0.50005 0 0 0 170,509.5 v 3 a 0.50005,0.50005 0 1 0 1,0 v -3 a 0.50005,0.50005 0 0 0 -0.59375,-0.5 z"/><path style="color:#000;font-style:normal;font-variant:normal;font-weight:400;font-stretch:normal;font-size:medium;line-height:normal;font-family:Sans;-inkscape-font-specification:Sans;text-indent:0;text-align:start;text-decoration:none;text-decoration-line:none;letter-spacing:normal;word-spacing:normal;text-transform:none;writing-mode:lr-tb;direction:ltr;baseline-shift:baseline;text-anchor:start;display:inline;overflow:visible;visibility:visible;fill:#bebebe;fill-opacity:1;stroke:none;stroke-width:1;marker:none;enable-background:accumulate" id="path3601-2-3-3-9-3-3" d="M 172.40625,509 A 0.50005,0.50005 0 0 0 172,509.5 v 3 a 0.50005,0.50005 0 1 0 1,0 v -3 a 0.50005,0.50005 0 0 0 -0.59375,-0.5 z"/><path style="color:#000;font-style:normal;font-variant:normal;font-weight:400;font-stretch:normal;font-size:medium;line-height:normal;font-family:Sans;-inkscape-font-specification:Sans;text-indent:0;text-align:start;text-decoration:none;text-decoration-line:none;letter-spacing:normal;word-spacing:normal;text-transform:none;writing-mode:lr-tb;direction:ltr;baseline-shift:baseline;text-anchor:start;display:inline;overflow:visible;visibility:visible;fill:#bebebe;fill-opacity:1;stroke:none;stroke-width:1;marker:none;enable-background:accumulate" id="path3601-2-3-3-9-3-3-7" d="M 174.40625,509 A 0.50005,0.50005 0 0 0 174,509.5 v 3 a 0.50005,0.50005 0 1 0 1,0 v -3 a 0.50005,0.50005 0 0 0 -0.59375,-0.5 z"/><text id="text851" x="167.696" y="521.982" transform="scale(0.99998156,1.0000184)" xml:space="preserve" style="font-style:normal;font-variant:normal;font-weight:700;font-stretch:normal;font-size:10.9737px;line-height:1.25;font-family:'DejaVu Sans';-inkscape-font-specification:'DejaVu Sans, Bold';font-variant-ligatures:normal;font-variant-caps:normal;font-variant-numeric:normal;font-variant-east-asian:normal;display:inline;fill:#bebebe;fill-opacity:1;stroke:none;stroke-width:1.02878"><tspan style="font-style:normal;font-variant:normal;font-weight:700;font-stretch:normal;font-size:10.9737px;font-family:'DejaVu Sans';-inkscape-font-specification:'DejaVu Sans, Bold';font-variant-ligatures:normal;font-variant-caps:normal;font-variant-numeric:normal;font-variant-east-asian:normal;stroke-width:1.02878" id="tspan849" x="167.696" y="521.982">Σ</tspan></text></g></svg>